<?xml version="1.0" encoding="UTF-8" standalone="no" ?>
<!DOCTYPE svg PUBLIC "-//W3C//DTD SVG 1.1//EN" "http://www.w3.org/Graphics/SVG/1.1/DTD/svg11.dtd">
<svg xmlns="http://www.w3.org/2000/svg" xmlns:xlink="http://www.w3.org/1999/xlink" version="1.1" width="640" height="640" viewBox="0 0 640 640" xml:space="preserve">
<desc>Created with Fabric.js 4.6.0</desc>
<defs>
</defs>
<g transform="matrix(1 0 0 1 320 320)" id="SD0dU4BnMQjCPdpoO7Ayj"  >
<g style="" vector-effect="non-scaling-stroke"   >
		<g transform="matrix(1 0 0 1 -1.35 -1.52)" id="8J4xJFdSQIQ_Z2GoTD4gS"  >
<path style="stroke: none; stroke-width: 1; stroke-dasharray: none; stroke-linecap: round; stroke-dashoffset: 0; stroke-linejoin: round; stroke-miterlimit: 1.5; fill: rgb(132,24,38); fill-rule: evenodd; opacity: 1;" vector-effect="non-scaling-stroke"  transform=" translate(-248.65, -248.48)" d="M 248.649 4.394 C 383.363 4.394 492.734 113.765 492.734 248.479 C 492.734 383.193 383.363 492.564 248.649 492.564 C 113.934 492.564 4.563 383.193 4.563 248.479 C 4.563 113.765 113.934 4.394 248.649 4.394 Z M 247.227 51.157 C 356.393 51.157 445.023 139.786 445.023 248.953 C 445.023 358.119 356.393 446.749 247.227 446.749 C 138.06 446.749 49.431 358.119 49.431 248.953 C 49.431 139.786 138.06 51.157 247.227 51.157 Z" stroke-linecap="round" />
</g>
		<g transform="matrix(1 0 0 1 -14.26 -39.15)" id="o9TYayFbfXypUQC_ip5-X"  >
<path style="stroke: rgb(132,24,38); stroke-width: 1; stroke-dasharray: none; stroke-linecap: round; stroke-dashoffset: 0; stroke-linejoin: round; stroke-miterlimit: 1.5; fill: rgb(132,24,38); fill-rule: evenodd; opacity: 1;" vector-effect="non-scaling-stroke"  transform=" translate(-235.74, -210.85)" d="M 187.679 284.024 L 277.756 284.024 C 277.756 284.024 286.039 285.059 288.109 277.812 L 288.109 141.661 C 288.109 141.661 272.061 132.602 254.978 141.661 L 254.978 248.821 L 185.867 248.821 C 185.867 248.821 180.254 261.795 185.867 284.051 L 187.679 284.024 Z" stroke-linecap="round" />
</g>
</g>
</g>
</svg>