<?xml version="1.0" encoding="UTF-8" standalone="no" ?>
<!DOCTYPE svg PUBLIC "-//W3C//DTD SVG 1.1//EN" "http://www.w3.org/Graphics/SVG/1.1/DTD/svg11.dtd">
<svg xmlns="http://www.w3.org/2000/svg" xmlns:xlink="http://www.w3.org/1999/xlink" version="1.1" width="500" height="500" viewBox="0 0 500 500" xml:space="preserve">
<desc>Created with Fabric.js 4.6.0</desc>
<defs>
</defs>
<g transform="matrix(0.79 0 0 0.79 250 244.68)" id="QAABIYDDTNg9_2cfaDyt_"  >
<g style="" vector-effect="non-scaling-stroke"   >
		<g transform="matrix(0.34 0 0 0.34 -5.16 -3.34)" id="yLUGj0d-TLYPHa432EuLD"  >
<path style="stroke: rgb(0,0,0); stroke-opacity: 0; stroke-width: 2.94; stroke-dasharray: none; stroke-linecap: round; stroke-dashoffset: 0; stroke-linejoin: round; stroke-miterlimit: 1.5; fill: rgb(132,24,38); fill-rule: evenodd; opacity: 1;" vector-effect="non-scaling-stroke"  transform=" translate(-1242.97, -1766.06)" d="M 1572.11 1952.62 L 1938.38 2134.28 C 1938.38 2134.28 1969.4 2499.08 1567.67 2459.21 C 1244.9 2427.17 909.885 2087.15 789.912 1937.9 C 760.569 1901.39 744.09 1876.3 743.799 1869.91 C 742.322 1837.42 526.444 1660.19 548.598 1282.1 C 548.598 1282.1 637.213 983.761 880.905 1094.53 L 1049.28 1451.94 C 934.654 1497 898.049 1539.32 854.321 1615.88 C 854.321 1615.88 981.336 1958.53 1403.74 2138.72 L 1572.11 1952.62 Z" stroke-linecap="round" />
</g>
		<g transform="matrix(0.34 0 0 0.34 -177.54 27.33)" id="H2EIY4E2AyQ4wnLNbZwJh"  >
<path style="stroke: rgb(132,24,38); stroke-opacity: 0; stroke-width: 2.94; stroke-dasharray: none; stroke-linecap: round; stroke-dashoffset: 0; stroke-linejoin: round; stroke-miterlimit: 1.5; fill: rgb(132,24,38); fill-rule: evenodd; opacity: 1;" vector-effect="non-scaling-stroke"  transform=" translate(-1035.36, -1041.16)" d="M 1088.62 1122.9 C 1088.62 1122.9 1014.28 1017.99 986.233 971.98 C 958.187 925.967 1081.72 1021.27 1081.72 1021.27 L 1088.62 1122.9 Z" stroke-linecap="round" />
</g>
		<g transform="matrix(0.34 0 0 0.34 -179.35 23.67)" id="D8WYYzUuUlCkBxYnfkPY7"  >
<path style="stroke: rgb(132,24,38); stroke-opacity: 0; stroke-width: 2.94; stroke-dasharray: none; stroke-linecap: round; stroke-dashoffset: 0; stroke-linejoin: round; stroke-miterlimit: 1.5; fill: none; fill-rule: evenodd; opacity: 1;" vector-effect="non-scaling-stroke"  transform=" translate(-1030.04, -1030.4)" d="M 963.351 937.463 L 1096.73 964.989 L 1091.69 1123.34" stroke-linecap="round" />
</g>
</g>
</g>
</svg>